<?xml version="1.0" standalone="no"?>
<!DOCTYPE svg PUBLIC "-//W3C//DTD SVG 20010904//EN"
 "http://www.w3.org/TR/2001/REC-SVG-20010904/DTD/svg10.dtd">
<svg version="1.0" xmlns="http://www.w3.org/2000/svg"
 width="865.000000pt" height="1151.000000pt" viewBox="0 0 865.000000 1151.000000"
 preserveAspectRatio="xMidYMid meet">

<g transform="translate(0.000000,1151.000000) scale(0.100000,-0.100000)"
fill="#FFFFFF" stroke="none">
<path d="M910 11220 c-102 -27 -241 -97 -321 -163 -117 -97 -221 -260 -265
-417 -18 -63 -19 -231 -22 -4810 -2 -3368 0 -4769 8 -4829 26 -195 106 -356
250 -501 100 -100 163 -143 279 -190 143 -59 -91 -55 3646 -55 l3450 0 41 23
c53 31 94 94 94 145 0 56 -36 114 -90 145 l-45 27 -3426 2 c-3135 1 -3431 2
-3490 17 -216 56 -376 282 -355 502 22 218 190 404 400 443 43 8 1075 11 3575
11 3516 0 3516 0 3561 21 58 26 96 63 126 122 l25 48 2 4637 2 4637 -21 45
c-30 65 -68 105 -126 134 l-52 26 -3585 -1 c-3511 0 -3588 -1 -3661 -19z
m4628 -829 c206 -15 301 -41 327 -90 19 -39 19 -66 -2 -101 -30 -52 -76 -60
-185 -36 -35 8 -107 16 -160 18 -90 3 -97 2 -102 -17 -3 -11 -9 -101 -13 -201
l-6 -181 29 -6 c16 -4 83 -9 149 -13 66 -3 135 -10 152 -16 47 -14 73 -52 73
-105 0 -37 -5 -50 -31 -74 l-31 -29 -112 6 c-61 4 -139 9 -172 13 l-62 7 -6
-59 c-3 -33 -6 -122 -6 -198 l0 -139 118 -1 c64 -1 156 0 203 1 106 2 142 -13
159 -66 10 -30 9 -42 -5 -74 -30 -67 -59 -73 -344 -71 -279 2 -287 4 -329 81
-23 43 -24 50 -19 195 28 778 40 972 64 1070 16 63 22 72 53 88 24 12 48 16
75 13 22 -3 105 -10 183 -15z m677 -33 c20 -9 48 -56 123 -210 53 -109 100
-198 104 -198 4 0 43 69 88 154 100 191 128 231 175 246 62 21 121 -16 132
-83 4 -29 -3 -50 -49 -133 -138 -249 -209 -383 -224 -424 -13 -37 -16 -99 -18
-362 -3 -357 -3 -358 -75 -378 -57 -15 -105 9 -126 64 -15 35 -16 81 -13 331
l3 290 -61 130 c-34 72 -94 198 -133 280 -40 84 -74 171 -77 197 -6 43 -4 49
24 77 33 34 80 41 127 19z m-3705 -13 c23 -12 33 -30 54 -92 27 -83 70 -253
106 -418 12 -55 24 -109 27 -119 3 -12 14 14 28 70 12 49 35 118 50 154 15 36
47 121 70 190 24 69 46 132 50 141 22 57 157 49 169 -10 14 -65 27 -228 41
-491 8 -157 20 -323 25 -369 5 -47 14 -151 20 -232 13 -166 6 -195 -50 -224
-37 -19 -51 -19 -94 2 -34 16 -35 19 -50 107 -9 50 -23 177 -31 281 -9 105
-19 206 -22 225 -6 34 -6 32 -24 -35 -11 -38 -30 -135 -44 -215 -40 -229 -45
-239 -117 -240 -90 0 -108 35 -166 314 -43 213 -42 214 -66 -114 -16 -212 -31
-292 -63 -316 -27 -21 -96 -17 -126 6 -45 36 -46 74 -11 445 18 187 40 439 49
560 20 268 34 352 65 377 27 22 71 23 110 3z m1208 -14 c113 -59 207 -247 254
-513 19 -103 22 -162 23 -363 0 -216 -2 -243 -19 -274 -28 -53 -116 -136 -177
-167 -47 -25 -65 -29 -139 -29 -73 0 -94 4 -148 29 -38 18 -77 45 -97 69 -81
94 -158 312 -171 487 -8 92 10 263 37 361 40 145 140 308 235 382 42 33 54 37
106 37 38 0 72 -7 96 -19z m721 -28 c30 -20 75 -119 136 -293 47 -135 106
-287 143 -368 l19 -42 6 269 c9 376 25 441 115 441 18 0 46 -7 61 -15 50 -25
54 -51 41 -277 -6 -112 -10 -369 -9 -573 3 -333 1 -373 -14 -402 -32 -60 -87
-79 -146 -49 -19 10 -36 35 -56 83 -16 37 -73 167 -128 288 -55 121 -118 269
-142 329 l-42 109 -6 -144 c-26 -552 -37 -650 -74 -679 -47 -36 -127 -18 -151
35 -15 31 -15 192 -2 365 6 69 14 262 20 430 5 168 14 340 21 382 11 76 12 78
53 102 49 30 120 34 155 9z"/>
<path d="M3585 10080 c-47 -64 -100 -181 -113 -250 -38 -195 -18 -371 60 -528
40 -80 46 -88 85 -101 37 -13 45 -13 82 4 23 10 52 33 66 51 23 31 25 40 25
151 0 174 -17 344 -46 463 -27 111 -84 244 -108 253 -10 4 -27 -11 -51 -43z"/>
</g>
</svg>
